<?xml version="1.0" encoding="utf-8"?>
<!-- Generator: Adobe Illustrator 16.0.0, SVG Export Plug-In . SVG Version: 6.00 Build 0)  -->
<!DOCTYPE svg PUBLIC "-//W3C//DTD SVG 1.1//EN" "http://www.w3.org/Graphics/SVG/1.1/DTD/svg11.dtd">
<svg version="1.1" id="Layer_1" xmlns="http://www.w3.org/2000/svg" xmlns:xlink="http://www.w3.org/1999/xlink" x="0px" y="0px"
	 width="1000px" height="559.01px" viewBox="0 0 1000 559.01" enable-background="new 0 0 1000 559.01" xml:space="preserve">
<path d="M93.573,189.302c-0.337-0.298-0.77-0.443-1.213-0.395l-23.004,2.229c-0.808,0.077-1.425,0.77-1.425,1.574l0.337,72.5
	c0.087,17.395-6.971,26.908-20.961,28.275c-1.002,0.097-1.965,0.145-2.89,0.145c-11.891,0-17.966-8.099-18.044-24.049l-0.327-72.5
	c-0.02-0.443-0.202-0.871-0.529-1.165c-0.337-0.293-0.761-0.443-1.214-0.395l-22.887,2.219C0.607,197.819,0,198.503,0,199.321
	l0.347,73.386c0.145,31.872,14.126,48.741,40.413,48.741c2.157,0,4.41-0.115,6.721-0.347c41.076-3.986,47.046-37.586,46.95-57.248
	l-0.347-73.392C94.084,190.019,93.891,189.597,93.573,189.302 M195.898,304.887c0.328,0.423,0.829,0.645,1.358,0.626l20.307-1.416
	c0.829-0.057,1.464-0.75,1.454-1.579l-0.558-121.063c0-0.434-0.183-0.853-0.51-1.156c-0.318-0.294-0.752-0.433-1.175-0.414
	l-19.777,1.382c-0.828,0.058-1.464,0.746-1.454,1.574l0.337,71.143l-51.755-68.332c-0.328-0.424-0.848-0.65-1.377-0.621
	l-24.399,1.705c-0.829,0.062-1.463,0.742-1.463,1.579l0.568,121.067c0,0.434,0.183,0.856,0.5,1.146
	c0.298,0.271,0.684,0.425,1.079,0.425c0.038,0,0.066,0,0.105-0.01l19.759-1.377c0.827-0.058,1.463-0.741,1.463-1.57l-0.356-77.164
	 M275.741,299.725l-0.559-120.687c0-0.434-0.173-0.838-0.5-1.136c-0.309-0.293-0.712-0.452-1.156-0.434l-26.306,1.315
	c-0.847,0.038-1.501,0.737-1.501,1.584l0.712,120.687c0,0.425,0.173,0.838,0.491,1.137c0.299,0.271,0.684,0.424,1.088,0.424
	c0.019,0,0.048,0,0.078,0l26.17-1.311C275.085,301.266,275.75,300.572,275.741,299.725 M366.868,296.971l52.765-122.26
	c0.212-0.497,0.155-1.065-0.144-1.512c-0.298-0.443-0.742-0.678-1.349-0.688l-23.706,0.698c-0.607,0.024-1.146,0.385-1.396,0.949
	l-34.586,79.895l-33.479-77.805c-0.261-0.592-0.77-0.925-1.493-0.944l-30.071,0.876c-0.509,0.02-0.991,0.284-1.27,0.727
	c-0.279,0.449-0.318,0.997-0.116,1.474l51.438,119.191c0.241,0.586,0.818,0.962,1.434,0.962h0.059l20.509-0.617
	C366.078,297.896,366.636,297.53,366.868,296.971 M436.176,172.875c-0.289,0.294-0.462,0.699-0.443,1.122l0.712,120.702
	c0,0.867,0.712,1.56,1.579,1.56l97.349-0.105c0.413,0,0.817-0.163,1.115-0.463c0.299-0.299,0.464-0.702,0.452-1.116l-0.105-23.682
	c0-0.868-0.712-1.57-1.579-1.57l-68.182,0.072l-0.106-22.652l45.275-0.048c0.424,0,0.818-0.168,1.117-0.462
	c0.289-0.294,0.462-0.698,0.462-1.121l-0.115-23.678c0-0.866-0.712-1.564-1.579-1.564l0,0l-45.295,0.048l-0.096-20.885l67.422-0.077
	c0.413,0,0.817-0.168,1.117-0.462c0.298-0.298,0.452-0.693,0.452-1.117l-0.105-23.494c-0.012-0.876-0.714-1.57-1.579-1.57
	l-96.751,0.101C436.889,172.413,436.483,172.577,436.176,172.875 M671.052,299.918l-31.285-0.935
	c-0.539-0.019-1.03-0.316-1.309-0.789l-26.47-45.602l-17.158-0.515l0.212,43.932c0,0.423-0.175,0.829-0.482,1.137
	c-0.298,0.289-0.732,0.424-1.146,0.442l-26.402-0.789c-0.848-0.039-1.521-0.723-1.531-1.579l-0.567-121.063
	c0-0.423,0.163-0.838,0.471-1.131c0.31-0.298,0.704-0.448,1.157-0.448l66.438,1.993c22.029,0.659,34.739,14.713,34.856,38.554
	c0.105,22.941-12.21,32.525-23.321,36.488l27.953,47.937c0.287,0.501,0.287,1.108-0.012,1.6c-0.277,0.48-0.799,0.77-1.347,0.77
	 M636.695,212.296c-0.029-5.74-1.136-10.924-14.174-11.309l-28.077-0.848l0.115,25.386l21.443,0.64
	c0.973,0.029,1.907,0.053,2.793,0.053c7.886,0,12.527-1.136,15.05-3.667C635.84,220.548,636.726,217.385,636.695,212.296
	 M697.289,185.86c-5.979,6.013-8.992,13.904-8.935,23.456c0.124,28.573,25.96,39.174,44.831,46.907
	c4.459,1.833,8.666,3.557,12.171,5.343c5.99,2.976,8.781,5.628,8.802,8.358c0.009,2.301-0.685,4.102-2.101,5.531
	c-2.868,2.879-8.579,4.15-17.245,3.678c-9.137-0.491-25.322-7.818-42.242-19.118c-0.479-0.323-1.106-0.356-1.615-0.078
	c-0.512,0.274-0.829,0.809-0.829,1.401l0.124,27.922c0,0.526,0.28,1.026,0.724,1.316c5.535,3.553,25.083,15.232,43.791,16.242
	c1.734,0.097,3.429,0.145,5.095,0.145c15.414,0,27.163-3.929,34.884-11.688c6.605-6.639,9.929-15.815,9.88-27.274
	c-0.126-25.703-25.583-36.411-44.177-44.219c-4.814-2.032-9.368-3.944-12.933-5.879c-5.939-3.173-8.829-6.153-8.838-9.099
	c-0.01-0.703,0.192-2.08,1.521-3.423c1.396-1.411,4.583-3.105,11.005-2.768c18.093,0.972,37.764,13.022,43.349,16.691
	c0.502,0.322,1.107,0.346,1.617,0.066c0.521-0.274,0.829-0.808,0.819-1.391l-0.126-27.033c0-0.553-0.289-1.054-0.76-1.343
	c-9.1-5.421-28.54-13.803-44.852-14.68C717.337,174.205,704.974,178.137,697.289,185.86 M906.465,312.504
	c0.184,0.5,0.107,1.067-0.221,1.492c-0.298,0.384-0.771,0.615-1.253,0.615c-0.037,0-0.075,0-0.114,0l-26.066-1.907
	c-0.615-0.058-1.154-0.462-1.365-1.038l-8.763-24.366l-42.366-3.115l-8.955,22.896c-0.26,0.636-0.877,1.042-1.579,0.993l-21.829-1.6
	c-0.5-0.039-0.952-0.298-1.214-0.721c-0.269-0.444-0.317-0.964-0.145-1.425l46.807-118.628c0.25-0.639,0.856-1.053,1.579-0.996
	l18.228,1.343c0.615,0.039,1.146,0.443,1.366,1.026 M858.543,259.8l-10.755-29.618l-11.122,28.01 M999.895,297.646
	c-0.011-0.808-0.626-1.482-1.435-1.561l-51.082-4.698l-0.462-97.048c0-0.818-0.626-1.487-1.435-1.565l-22.676-2.089
	c-0.442-0.043-0.886,0.105-1.214,0.413c-0.326,0.294-0.51,0.717-0.5,1.16l0.693,122.527c0.009,0.809,0.617,1.483,1.425,1.55
	l75.076,6.924c0.048,0.01,0.096,0.01,0.135,0.01c0.404,0,0.78-0.145,1.067-0.415c0.338-0.288,0.521-0.712,0.512-1.164
	 M138.848,358.365c0,18.729-13.432,32.795-31.978,34.143c-18.544,1.329-31.948-10.783-31.948-29.522
	c0-17.503,15.31-30.984,31.948-32.198C123.509,329.594,138.848,340.869,138.848,358.365 M123.201,359.492
	c0-7.974-7.357-14.762-16.331-14.117c-8.974,0.646-16.33,8.503-16.33,16.485c0,9.984,7.356,16.706,16.33,16.06
	C115.844,377.275,123.201,369.477,123.201,359.492 M180.165,362.139c6.066,7.56,12.132,15.137,18.189,22.705
	c-6.23,0.328-12.47,0.693-18.709,1.059c-4.737-7.154-9.475-14.287-14.193-21.432c-0.058,0.018-0.116,0.018-0.154,0.018v22.263
	c-5.017,0.288-10.024,0.606-15.041,0.923v-57.867c7.491-0.473,14.982-0.945,22.474-1.388c11.438-0.664,20.105,4.305,20.105,16.667
	C192.836,353.068,188.388,360.213,180.165,362.139 M177.18,346.888c0-6.289-5.518-6.895-10.428-6.587
	c-0.491,0.021-0.973,0.06-1.454,0.078v14.434c0.481-0.029,0.963-0.048,1.454-0.087C171.663,354.427,177.18,353.194,177.18,346.888
	 M224.679,325.791c-5.017,0.24-10.024,0.51-15.031,0.771v57.867c11.015-0.585,22.04-1.125,33.065-1.627v-12.738
	c-6.018,0.28-12.037,0.569-18.035,0.858 M291.84,323.046c7.26,19.008,14.54,38.053,21.799,57.118
	c-5.354,0.173-10.688,0.347-16.042,0.54c-1.251-3.303-2.503-6.624-3.764-9.918c-6.904,0.251-13.818,0.51-20.722,0.79
	c-1.338,3.408-2.667,6.808-3.996,10.206c-5.325,0.23-10.649,0.462-15.965,0.685c7.414-19.614,14.848-39.22,22.261-58.795
	C280.882,323.45,286.36,323.238,291.84,323.046 M289.76,359.414c-2.041-6.057-4.082-12.123-6.143-18.188c-0.038,0-0.096,0-0.145,0
	c-2.07,6.229-4.15,12.45-6.22,18.671C281.421,359.731,285.59,359.577,289.76,359.414 M365.847,356.286c-0.038,0-0.097,0-0.154,0
	c-9.187-11.595-18.372-23.158-27.567-34.693c-5.017,0.145-10.043,0.278-15.05,0.434v57.869c5.026-0.155,10.033-0.3,15.05-0.434
	v-35.464c0.047,0,0.105,0,0.163,0c9.186,11.556,18.372,23.158,27.558,34.771c5.026-0.107,10.033-0.202,15.05-0.298v-57.869
	c-5.017,0.096-10.024,0.192-15.05,0.308 M448.404,348.726c0,16.264-13.366,28.992-29.417,29.186
	c-7.115,0.077-14.24,0.174-21.356,0.289v-57.86c7.116-0.124,14.241-0.221,21.356-0.298
	C435.117,319.851,448.404,332.444,448.404,348.726 M432.729,348.832c0-10.36-6.837-16.128-16.513-16.022
	c-1.165,0.021-2.359,0.039-3.535,0.06v32.381c1.137-0.02,2.263-0.029,3.39-0.048C425.044,365.095,432.729,360.117,432.729,348.832
	 M523.75,347.773c0,18.719-13.451,31.785-32.036,31.736c-18.583-0.048-32.026-13.173-32.026-31.91
	c0-17.506,15.368-29.849,32.026-29.791C508.392,317.848,523.75,330.269,523.75,347.773 M508.084,347.734
	c0-7.991-7.377-15.329-16.37-15.348c-8.984-0.029-16.359,7.28-16.359,15.251c0,9.977,7.375,17.275,16.359,17.294
	C500.707,364.95,508.084,357.711,508.084,347.734 M609.331,355.015c6.065,8.04,12.132,16.079,18.207,24.14
	c-6.259-0.165-12.497-0.3-18.746-0.434c-4.737-7.53-9.466-15.04-14.212-22.541c-0.048-0.011-0.097-0.011-0.145-0.011v22.263
	c-5.018-0.097-10.034-0.174-15.061-0.25v-57.869c7.51,0.114,15.013,0.25,22.504,0.395c11.448,0.241,20.123,5.892,20.123,18.246
	C622.002,346.945,617.543,353.733,609.331,355.015 M606.336,339.511c0-6.277-5.536-7.316-10.447-7.413
	c-0.491,0-0.974-0.019-1.453-0.019v14.423c0.479,0.019,0.962,0.019,1.453,0.019C600.8,346.628,606.336,345.818,606.336,339.511
	 M640.047,379.394c10.986,0.31,21.953,0.636,32.939,1.003v-12.74c-5.96-0.202-11.93-0.395-17.891-0.567v-9.977
	c5.653,0.175,11.314,0.347,16.966,0.539v-12.747c-5.651-0.174-11.313-0.355-16.966-0.539v-9.658
	c5.961,0.184,11.931,0.355,17.891,0.558v-12.737c-10.986-0.367-21.953-0.693-32.939-0.992 M716.587,346.628
	c-1.281-0.443-2.562-0.877-3.843-1.319c-2.6-0.943-6.674-2.417-6.674-5.798c0-3.215,3.688-4.688,6.442-4.563
	c3.688,0.145,7.221,1.829,9.986,4.246c2.001-3.804,3.984-7.597,5.979-11.4c-5.132-3.148-12.276-5.297-18.112-5.538
	c-11.584-0.461-19.95,6.913-19.95,18.662c0,11.207,6.22,13.883,15.655,16.936c3.227,1.051,9.128,2.754,9.128,6.973
	c0,4.071-3.755,5.681-7.287,5.536c-5.144-0.202-9.591-3.062-13.355-6.5c-2.157,3.959-4.306,7.925-6.451,11.893
	c5.912,4.353,13.057,7.076,20.346,7.375c5.835,0.231,11.892-1.127,16.417-4.765c4.611-3.718,5.998-9.563,5.998-15.32
	C730.865,353.686,724.645,349.334,716.587,346.628 M805.22,356.217c-0.011,18.738-13.433,31.122-31.998,30.149
	c-18.563-0.964-31.996-14.771-31.996-33.509c0-17.486,15.349-29.079,31.996-28.193C789.88,325.531,805.22,338.722,805.22,356.217
	 M789.563,355.4c0-7.982-7.367-15.686-16.341-16.158c-8.983-0.481-16.349,6.451-16.349,14.443c0,9.975,7.365,17.629,16.349,18.093
	C782.207,372.249,789.563,365.375,789.563,355.4 M847.161,364.971c6.066,8.319,12.123,16.638,18.171,24.978
	c-6.229-0.454-12.47-0.877-18.71-1.292c-4.727-7.741-9.454-15.462-14.182-23.186c-0.049,0-0.106,0-0.154-0.02v22.271
	c-5.008-0.326-10.016-0.625-15.03-0.935v-57.867c7.491,0.452,14.982,0.923,22.474,1.414c11.428,0.741,20.085,6.789,20.085,19.162
	C859.814,357.479,855.366,364.064,847.161,364.971 M844.178,349.353c0-6.298-5.527-7.588-10.438-7.896
	c-0.481-0.039-0.962-0.068-1.453-0.097v14.423c0.491,0.039,0.972,0.078,1.453,0.097C838.65,356.198,844.178,355.65,844.178,349.353
	 M869.857,332.155v12.729c4.141,0.31,8.29,0.599,12.431,0.906v45.12c5.008,0.365,10.004,0.732,15.01,1.117v-45.121
	c4.141,0.31,8.281,0.636,12.412,0.964v-12.74C896.433,334.081,883.155,333.089,869.857,332.155 M398.296,445.842h0.308
	C398.334,445.986,398.565,445.986,398.296,445.842 M398.064,450.513c-0.097-0.106-0.211-0.202-0.308-0.308
	c-0.048,0.105-0.087,0.201-0.135,0.308c0.096,0.038,0.192,0.096,0.289,0.153C397.968,450.608,398.016,450.551,398.064,450.513
	 M399.702,468.065h0.597v-0.145c-0.327-0.26-0.298-0.231-0.886-0.298C399.509,467.768,399.605,467.921,399.702,468.065
	 M435.896,505.108c0.048-0.116,0.106-0.213,0.145-0.31c-0.636-0.096-1.271-0.192-1.917-0.298
	C434.5,505.021,435.213,504.953,435.896,505.108 M428.685,504.799c0.327,0.732,0.731,1.012,1.617,1.176
	C429.878,505.407,429.435,505.061,428.685,504.799 M514.496,416.773c-0.105,0-0.201,0-0.308,0c0.019,0.097,0.019,0.193,0.019,0.289
	C514.304,416.967,514.391,416.87,514.496,416.773 M400.462,470.753c0,0.153,0,0.308,0,0.462c0.145,0,0.298,0,0.443-0.01
	C400.761,471.061,400.607,470.906,400.462,470.753 M512.571,416.907c0.096,0.097,0.192,0.192,0.308,0.31c0.24,0,0.481,0,0.731,0
	c0-0.058,0-0.105,0-0.154c-0.202-0.155-0.404-0.309-0.597-0.453C512.86,416.705,512.716,416.811,512.571,416.907 M403.36,464.772
	c0.048-0.058,0.087-0.106,0.135-0.145c0-0.058,0-0.115,0-0.154h-0.578C403.167,464.898,402.937,464.531,403.36,464.772
	 M401.801,473.16h0.298c-0.048-0.116-0.105-0.203-0.145-0.31C401.897,472.957,401.858,473.044,401.801,473.16 M430.302,504.799
	c-0.125-0.114-0.25-0.24-0.366-0.365c-0.038-0.019-0.058-0.019-0.095-0.019C429.801,504.877,429.733,504.606,430.302,504.799
	 M631.901,63.632c0.865,0.862,2.667,1.41,3.553,1.463c0.115,0.208,0.229,0.414,0.355,0.621c-0.279,0.164-0.548,0.342-0.819,0.511
	c0.406,0.828,0.666,0.818,0.569,1.738c0.539-0.083,1.098-0.159,1.646-0.231c0.049-0.274,0.097-0.539,0.136-0.809
	c-0.01-0.105-0.01-0.202-0.01-0.313c0.058,0,0.115,0,0.173-0.01c0.337,1.768,1.311,2.966,1.84,4.873
	c0.23-0.009,0.443-0.02,0.664-0.033c0.058-0.105,0.105-0.217,0.153-0.323c-0.114-0.265-0.24-0.525-0.364-0.79
	c0.346,0.207,0.684,0.404,1.03,0.602c0.048,0,0.105-0.009,0.153-0.009c-0.184-0.525-0.367-1.045-0.549-1.57
	c0.453,0.309,0.905,0.602,1.357,0.91c0.403,0.737,0.415,1.42,0.096,2.373c0.512,0.404,1.021,0.799,1.542,1.204
	c0.047,0,0.115,0,0.163,0c-0.126-0.207-0.24-0.415-0.355-0.621c0-0.059,0-0.106,0-0.159c0.5,0.188,1.001,0.375,1.501,0.573
	c-0.009-0.217-0.019-0.424-0.019-0.631c1.106,0.395,1.531,0.086,2.291-0.553c1.185,1.333,0.751,3.562,3.429,3.047
	c0.085,1.344,0.413,1.815,0.943,2.653c-1.242,1.053-2.601,0.346-3.968,0.14c0.24,1.044,0.568,0.847,1.214,1.381
	c-0.223,0.265-0.425,0.539-0.636,0.813c0.066,0.111,0.126,0.212,0.184,0.309c0.434-0.168,0.865-0.356,1.299-0.524
	c0.464,0.563,0.925,1.126,1.387,1.689c-0.163,1.016-1.02,1.507-2.089,1.675c-0.154,0.178-0.308,0.347-0.473,0.511
	c0.578,0.457,1.136,0.9,1.705,1.353c1.714-0.968,3.351,0.158,5.315,0.75c0.423-0.216,0.856-0.448,1.29-0.674
	c-0.212,0.554-0.193,0.506-0.115,1.117c-1.108,0.029-2.196,0.068-3.293,0.106c0.048,1.458-0.877,3.158-2.157,4.429
	c0.009,0.106,0.009,0.217,0.019,0.313c0.857,0.053,0.943-0.097,1.829,0.395c0.454-0.669,0.192-1.17,1.437-1.507
	c0.817-0.298,1.78,0.197,2.646,0.385c0.048-0.553-0.193-1.617,0.261-1.926c0.019-0.019,5.276,0.27,5.431,0.357
	c0.172,0,0.326,0,0.491,0c-0.117-0.265-0.231-0.529-0.357-0.79c2.533,0.043,3.766-0.048,5.691-1.131
	c0.048-0.101,0.105-0.208,0.153-0.308c-0.126-0.313-0.25-0.631-0.364-0.944c-0.762-0.053-1.531-0.11-2.303-0.149
	c0.347-0.678,1.155-1.796,0.866-2.821c-0.423-1.609-3.437-4.733-5.169-2.634c-0.175-0.048-0.338-0.096-0.512-0.154
	c-1.04-2.061-2.734-4.468-5.344-6.018c-0.991-0.405-1.994-0.8-3.004-1.205c-2.715-2.45-4.035-4.424-8.108-4.347
	c0.425-0.323,0.858-0.65,1.292-0.972c-0.289-0.208-0.569-0.405-0.858-0.603c0.608-1.343-0.163-2.34,0.029-3.601
	c-1.521-1.419-4.218-0.977-6.144-0.491c-0.048-0.948,0.271-0.601-0.539-0.938c0.192-0.77,0.512-1.193,1.099-1.599
	c-0.126-0.36-0.261-0.727-0.376-1.083c-1.715-0.337-3.351,0.453-4.979-0.048c-0.328,0.471-0.289,0.573,0.049,1.102
	c-0.26,0.713-0.136,0.78,0.385,1.421c-0.105,0.057-0.222,0.12-0.328,0.178c-0.558-0.087-0.316-0.149-0.645,0.337
	c0.337,0.52,0.693,1.035,1.049,1.555c0,0.048,0,0.11,0,0.159c-0.741-0.5-1.474-1.005-2.215-1.507
	C632.228,63.3,632.354,62.915,631.901,63.632 M631.438,60.123c-0.289-0.039-0.558-0.087-0.838-0.126
	c-0.432,0.385-0.855,0.78-1.289,1.16c0.461,0.545,0.789,0.741,0.876,1.267c0.184,0.096,0.347,0.197,0.51,0.294
	c0.376-0.337,0.751-0.669,1.127-1.006C631.699,61.181,631.563,60.657,631.438,60.123 M630.042,62.746
	c-0.223,0.121-0.442,0.236-0.663,0.357c0.615,0.573,0.991,1.054,1.396,1.863c0.184,0.048,0.347,0.096,0.519,0.14
	c-0.202-0.684-0.384-1.372-0.587-2.061C630.485,62.944,630.265,62.847,630.042,62.746 M634.451,65.293
	c-0.221-0.101-0.452-0.197-0.673-0.298c0.173,0.207,0.356,0.414,0.52,0.622C634.356,65.51,634.403,65.399,634.451,65.293
	 M631.305,65.428c0-0.048-0.012-0.106-0.012-0.16c-0.172,0.01-0.326,0.024-0.491,0.024c0,0.106,0,0.217,0.012,0.323
	C630.977,65.558,631.13,65.5,631.305,65.428 M634.191,66.906c0.049,0,0.106-0.01,0.154-0.01c0.048-0.163,0.097-0.322,0.154-0.481
	c-0.115,0-0.221,0.009-0.326,0.009c-0.058,0.058-0.106,0.111-0.175,0.168c0.01,0.058,0.01,0.106,0.01,0.16
	C634.077,66.81,634.135,66.849,634.191,66.906 M633.52,66.939c0.009,0.154,0.009,0.313,0.019,0.482c0.105-0.01,0.22-0.01,0.337-0.02
	C633.634,66.925,633.875,67.205,633.52,66.939 M637.485,70.439c0.425-0.414,0.636-1.627,0.078-2.248
	c-0.377,0.65-0.482,0.876-1.292,1.18C636.59,70.281,636.792,70.045,637.485,70.439 M636.406,68.408
	c-0.057,0.058-0.105,0.106-0.163,0.168c0.01,0.048,0.01,0.106,0.01,0.155c0.105,0.053,0.221,0.101,0.337,0.149
	c0.058-0.057,0.105-0.105,0.163-0.168C636.639,68.615,636.513,68.504,636.406,68.408 M629.521,76.661
	c-0.154,0.066-0.317,0.139-0.491,0.207c0.665,0.592,1.262,0.51,2.205,0.472c-0.566,0.621-0.653,0.732-1.136,1.261
	c1.348,1.646,2.417,0.622,4.391,1.107c-1.115,0.774-0.76,0.765-0.77,1.873c-0.713,0.728-0.646,0.472,0.037,0.987
	c-0.422,0.775-0.326,0.285-0.133,1.16c-0.443-0.009-0.896-0.018-1.34-0.028c-0.095,0.289-0.202,0.573-0.308,0.857
	c0.617-0.116,1.223-0.236,1.84-0.342c-0.386,0.255-0.771,0.511-1.156,0.765c2.109,4.724,8.897-1.656,11.96-1.603
	c-0.184-2.132-1.242-5.522-3.408-6.557c-0.06-0.101-0.117-0.207-0.184-0.309c1.049-0.332,0.943-0.847,1.617-1.203
	c-0.011-0.265-0.02-0.53-0.029-0.8c-1.214-1.093-2.224-1.064-3.255-2.562c-1.241-0.573-2.205-0.293-3.14,0.482
	c0.078-0.371,0.03-0.188,0.319-0.66l-1.531-0.563c-0.452,0.535-1.338,0.818-2.465,0.968c-0.145,1.064-0.068,1.083-0.607,1.834
	c0.636,0.481,1.253,0.404,2.013,0.178c-0.269,0.838-0.588,0.621-0.606,1.349c-1.512,0.062-3.014,0.121-4.517,0.197
	C628.945,76.689,629.138,76.058,629.521,76.661 M644.977,75.524c0.066,0.158,0.124,0.317,0.192,0.466
	c0.27-0.062,0.549-0.119,0.817-0.187c0.049-0.159,0.097-0.327,0.145-0.486c-0.287-0.246-0.576-0.5-0.855-0.756
	C645.179,74.883,645.082,75.201,644.977,75.524 M708.508,130.364c0.115,0.121,0.221,0.236,0.336,0.357c0.048,0,0.107,0,0.155,0.009
	c-0.145-2.408-1.407-6.735-3.092-7.63c0.184,0.395,0.347,0.79,0.52,1.184c-0.317,0.197-0.634,0.404-0.953,0.602
	C705.561,126.956,707.092,129.609,708.508,130.364 M708.343,123.908c-0.097,0.048-0.202,0.096-0.308,0.15
	c0,0.154,0.01,0.323,0.01,0.491c0.261,0.019,0.539,0.028,0.81,0.047C708.623,124.096,708.737,124.221,708.343,123.908
	 M714.236,141.915c-0.684-3.799-2.407-7.742-4.411-10.308c-0.172-0.068-0.326-0.125-0.479-0.197
	c-0.097,0.496-0.202,0.987-0.299,1.492c-0.693,0.375-0.473,0.395-1.28,0.087c0.153,1.873,2.128,3.629,2.849,5.185
	c0.551,1.194,0.165,2.691,0.56,3.583c0.693,0.385,0.817,0.943,2.118,1.121c-0.068-0.452-0.126-0.905-0.192-1.357
	c0.404,0.038,0.471,0.105,0.973,0.385C714.131,141.904,714.188,141.915,714.236,141.915 M349.517,125.642
	c0.192-0.107,0.384-0.227,0.577-0.333c-0.096-0.038-0.193-0.091-0.289-0.129C349.708,125.339,349.613,125.487,349.517,125.642
	 M509.886,36.301c0-0.048,0-0.096,0-0.134c-0.301-0.236-0.193-0.198-0.743-0.309C509.432,36.233,509.307,36.147,509.886,36.301
	 M298.08,122.214c-0.136-0.082-0.28-0.159-0.424-0.241c-0.135,0.712-0.28,1.42-0.423,2.123c0.038,0.096,0.095,0.188,0.134,0.274
	c0.048-0.009,0.096-0.009,0.154-0.02C297.704,123.644,297.887,122.921,298.08,122.214 M435.56,112.835c0.154,0,0.298,0,0.443,0
	c-0.096-0.096-0.192-0.197-0.289-0.283C435.656,112.638,435.617,112.739,435.56,112.835 M489.75,18.695
	c0.309-0.28,0.616-0.554,0.905-0.829c0.02-0.139,0.02-0.279,0.02-0.414c-1.416-0.356-2.504-0.75-4.43-0.731
	c-0.636,0.235-1.29,0.461-1.935,0.688c-0.048,0.241-0.107,0.467-0.164,0.703c0,0.039,0,0.087,0,0.14
	C485.206,18.791,488.364,19.451,489.75,18.695 M528.805,60.392c0.059,0,0.116,0,0.153,0.01c0-0.063,0-0.101,0-0.149
	c-0.133-0.096-0.287-0.208-0.442-0.304C528.623,60.093,528.708,60.243,528.805,60.392 M514.554,22.498
	c-0.058-0.097-0.096-0.198-0.153-0.284c-0.049,0.086-0.097,0.187-0.145,0.274C514.352,22.489,514.458,22.498,514.554,22.498
	 M533.243,89.683c0.097-0.096,0.202-0.188,0.299-0.285c-0.097,0-0.202-0.009-0.299-0.009
	C533.243,89.486,533.243,89.577,533.243,89.683 M548.496,90.106c-0.75-0.208-0.857,0.467-2.091,0.63
	c-0.048-0.192-0.096-0.395-0.145-0.587c0.425-0.583,0.887-0.997,1.648-1.243c0.048-0.091,0.096-0.187,0.153-0.288
	c-0.058-0.048-0.105-0.096-0.153-0.149c-1.878,0.11-2.254,0.476-3.294,1.305c-0.097-0.198-0.202-0.405-0.298-0.603
	c-0.386-0.082-0.078,0.14-0.443-0.168c1.03-0.915,3.177-1.449,3.592-1.873c0.105-0.101,0.202-0.187,0.299-0.283
	c-0.627-0.583-2.196-0.467-3.284-0.592c0.357-0.919,0.068-0.25-0.145-1.483c0.867-0.135,1.184-0.274,1.647-0.795
	c-0.964-0.852-2.543-1.796-3.872-1.501c-0.597-0.602-0.115-0.944-1.049-1.358c-0.413,0.197,0,0.285-0.443,0.126
	c-0.096,0.423-0.163,0.245,0.145,0.591c-0.298-0.019-0.597-0.029-0.895-0.038c-0.867,0.038-0.53,0.068-0.443-0.761
	c-0.741,0.092-0.463-0.067-0.597,0.414c-0.551-0.322-0.877-0.51-1.503-0.501c0.105-0.139,0.211-0.288,0.308-0.424
	c-0.576-0.288-0.192-0.167-0.751-0.043c-0.096-0.095-0.201-0.192-0.298-0.303c0-0.188,0-0.385,0-0.582
	c0.605-0.02,1.204-0.039,1.802-0.059c0-0.048,0-0.101,0-0.149c-0.907-0.669-1.907-0.641-2.832-1.439
	c-0.896,0.347-1.8,0.703-2.695,1.044c0.423-1.468,3.003-2.788,4.496-3.153c0.212-0.235,0.404-0.461,0.606-0.703
	c-0.413-0.322-0.425-0.39-1.193-0.491c0.009-0.048,0.009-0.096,0.009-0.149c0-0.039,0-0.087,0-0.145
	c0.78,0.255,1.3,0.462,2.089,0.384c0.097-0.091,0.192-0.178,0.299-0.279c0.048-0.14,0.096-0.284,0.145-0.423
	c-0.79-0.235-1.589-0.462-2.378-0.688c-0.904,0.01-1.791,0.02-2.686,0.029c-0.588,0.129-2.167,1.063-3.005,1.478
	c-1.608,0.8-2.283,2.859-4.362,3.313c-0.269,0.563-0.25,0.433,0,1.016v0.149c-0.606-0.121-0.443-0.01-0.751-0.327
	c-0.943,0.235-1.425,0.871-1.955,1.531c0.299,0.246,0.588,0.5,0.886,0.756c-1.203-0.247-2.764,0.514-4.188,0.712
	c0.097,0.481,0.192,0.978,0.289,1.458c2.465,0.631,12.49,2.633,13.298,3.491c-0.202-0.009-0.404-0.02-0.597-0.02
	c0.991,0.376,1.983,0.771,2.983,1.156c0.232-0.279,0.204-0.188,0.31-0.722c0.636,0.274,1.29,0.553,1.936,0.829
	c-1.232,0.461-2.543,0.808-4.641,0.659c-0.049,0.188-0.097,0.386-0.154,0.574c3.158,1.213,5.681-0.256,8.387-1.065
	c0.202,0.256,0.395,0.501,0.587,0.761c-0.038,1.252-0.741,1.656-1.503,2.119c0.214,0.602,0.136,0.452,0.597,0.77
	c0.705-0.207,1.397-0.423,2.091-0.63c-0.31,0.539-0.424,0.746-0.452,1.732c0.809,0.217,1.453,0.318,2.242,0.553
	c1.106-0.553,1.416-1.689,2.408-2.377C548.593,90.896,548.545,90.501,548.496,90.106 M522.373,79.876
	c-0.096,0.048-0.192,0.087-0.289,0.135c-0.048,0.139-0.115,0.288-0.153,0.423c0.692,0.082,1.396,0.159,2.079,0.236
	c-0.241-0.254-0.481-0.51-0.732-0.755C522.979,79.905,522.681,79.896,522.373,79.876 M539.628,72.736
	c-0.066,0.135-0.115,0.285-0.163,0.423c0.537-0.235,0.191,0.097,0.452-0.413C539.82,72.746,539.715,72.736,539.628,72.736
	 M538.106,76.169c0.097-0.092,0.192-0.188,0.298-0.28c-0.105-0.009-0.201-0.009-0.298-0.019
	C538.106,75.971,538.106,76.067,538.106,76.169 M538.404,76.905c0.097-0.038,0.193-0.086,0.29-0.13c0-0.048,0-0.097,0-0.145
	c-0.241-0.062-0.491-0.121-0.732-0.178C538.106,76.602,538.251,76.757,538.404,76.905 M477.416,85.394
	c-0.087,0.496-0.116,0.347,0.145,0.732c0.105-0.087,0.202-0.188,0.308-0.285C477.714,85.701,477.561,85.542,477.416,85.394
	 M460.113,93.747c0.097,0.101,0.193,0.197,0.298,0.293c0.048,0,0.097,0,0.145,0C460.286,93.747,460.565,93.934,460.113,93.747
	 M478.311,86.293c0.096-0.101,0.202-0.198,0.298-0.289c-0.096,0-0.202,0-0.298-0.01C478.311,86.096,478.311,86.192,478.311,86.293
	 M487.294,85.21c-0.144,0-0.299,0-0.442-0.014c-0.155,0.197-0.299,0.384-0.462,0.572c0.106,0.048,0.202,0.101,0.308,0.149
	C487.103,85.591,487.074,85.797,487.294,85.21 M469.077,94.771c-0.308-0.246-0.288-0.235-0.885-0.303
	c-0.068,0.097-0.107,0.198-0.164,0.285c0.25,0.096,0.5,0.207,0.75,0.303c0.058,0,0.096,0,0.155,0
	C468.971,94.969,469.029,94.874,469.077,94.771 M532.655,88.186c0.097,0.207,0.193,0.405,0.289,0.602
	c0.106-0.091,0.202-0.188,0.299-0.274C533.051,88.402,532.849,88.296,532.655,88.186 M542.864,81.488
	c-0.06,0.198-0.107,0.386-0.156,0.583c0.396,0.01,0.79,0.029,1.195,0.048C543.653,81.459,543.729,81.551,542.864,81.488
	 M532.492,89.211c0.154,0.048,0.299,0.11,0.452,0.158c0.106-0.038,0.202-0.091,0.299-0.129c-0.192-0.107-0.395-0.217-0.588-0.323
	C532.599,89.014,532.541,89.109,532.492,89.211 M461.903,93.626c0.27,0.139,0.039,0.139,0.309,0
	C462.115,93.626,462.019,93.626,461.903,93.626 M466.247,93.409c-0.241,0.101-0.491,0.188-0.751,0.279c0,0.097,0,0.198,0,0.294
	c0.491,0.058,0.992,0.111,1.493,0.168c0.009-0.048,0.009-0.096,0.009-0.149C466.688,93.568,466.853,93.626,466.247,93.409
	 M545.088,85.258c-0.097-0.11-0.213-0.207-0.298-0.308c-0.06,0.139-0.108,0.289-0.156,0.423
	C544.778,85.336,544.933,85.297,545.088,85.258 M542.671,89.24c0-0.149,0-0.294,0-0.443c-0.145,0-0.298-0.01-0.442-0.019
	c-0.214,0.14-0.406,0.274-0.599,0.414c-0.058,0.149-0.105,0.285-0.154,0.433c0.154,0,0.299,0.01,0.443,0.02
	C542.169,89.504,542.419,89.38,542.671,89.24 M290.482,144.417c-0.048,0.106-0.096,0.217-0.135,0.313
	c0.135,0.178,0.28,0.357,0.414,0.535c0.048-0.01,0.086-0.02,0.135-0.029C290.829,144.514,290.935,144.654,290.482,144.417
	 M488.633,87.28c0.25,0.135,0.02,0.135,0.289,0.01C488.826,87.291,488.729,87.28,488.633,87.28 M469.414,91.599
	c-0.097-0.009-0.202-0.009-0.298-0.009c0,0.096,0,0.188,0,0.284C469.212,91.787,469.317,91.686,469.414,91.599 M502.133,70.613
	c3.332,2.104,5.681,3.895,10.11,5.248c0.096-0.038,0.192-0.086,0.289-0.13c0-0.145,0-0.294,0.021-0.434
	c-2.341-2.031-6.337-4.732-10.285-4.968C502.229,70.43,502.172,70.527,502.133,70.613 M495.643,35.049
	c-0.096,0-0.202-0.009-0.298-0.009c0,0.091,0,0.187,0,0.289C495.441,35.227,495.546,35.141,495.643,35.049 M504.377,84.725
	c0.356,0.443,0.588,0.534,1.185,0.77c1.377-0.236,1.175-0.978,3.158-0.896c0.058-0.052,0.097-0.1,0.153-0.148v-0.14
	c-0.982-0.443-7.163-1.853-7.163-1.853c-0.56-0.304-0.328-0.01-0.454-0.728c-0.702-0.654-0.374-0.404-0.133-1.314
	c-0.145-0.058-0.299-0.106-0.443-0.16c-0.549,0.217-1.108,0.449-1.657,0.675c-0.048,0.086-0.106,0.187-0.145,0.283
	c1.579,1.382,2.986,2.22,5.201,3.067C504.531,84.574,504.29,84.3,504.377,84.725 M485.667,29.147
	c-0.385-0.366-1.117-0.592-1.762-0.713c0.279,0.423,0.665,0.506,1.175,0.713C485.282,29.147,485.475,29.147,485.667,29.147
	 M510.317,36.599c0,0.048,0,0.087,0,0.14c0.442,0.509,1.147,0.982,1.916,1.18c0.26-0.188,0.501-0.362,0.762-0.55
	c-0.155-0.288-0.298-0.573-0.442-0.862c-0.396-0.105-0.78-0.216-1.185-0.312C511.203,36.706,511.338,36.638,510.317,36.599
	 M521.12,53.349c0.06,0,0.107,0,0.156,0c0.048-0.096,0.096-0.183,0.153-0.284c-0.25-0.048-0.5-0.11-0.752-0.169
	C520.948,53.421,520.602,53.075,521.12,53.349 M499.764,37.524c-0.096,0.139-0.211,0.279-0.308,0.414
	c0.511,0.404,1.339,0.299,2.08,0.188c0.048-0.097,0.096-0.188,0.153-0.284c-0.25-0.15-0.5-0.294-0.731-0.443
	c-0.26-0.054-0.501-0.102-0.751-0.15C500.054,37.336,499.908,37.428,499.764,37.524 M478.62,26.156c0.192,0,0.395,0,0.597,0
	c0.058-0.086,0.105-0.187,0.154-0.274c-0.154-0.188-0.289-0.375-0.433-0.563c-0.491-0.086-0.973-0.188-1.474-0.284
	C477.734,25.695,478.109,25.762,478.62,26.156 M491.195,27.529c0-0.053,0-0.101,0-0.149c-0.155,0-0.299,0-0.443,0
	c0,0.087,0,0.188-0.019,0.274C490.896,27.606,491.04,27.568,491.195,27.529 M457.638,24.597c0.039,0.318,0.077,0.646,0.125,0.969
	c2.196-0.236,4.285-0.116,6.24-0.699c0.038-0.091,0.097-0.188,0.154-0.279c-1.386-0.236-2.754-0.462-4.131-0.688
	C459.236,24.134,458.438,24.361,457.638,24.597 M443.821,48.154c0.385,0.857,2.658,1.579,3.659,1.825h0.155
	c0.172-0.611,0.058-0.866-0.116-1.401c-0.751-0.424-1.792-0.602-2.956-0.698C444.302,47.976,444.061,48.067,443.821,48.154
	 M475.076,25.998c0.443,0.053,0.886,0.101,1.329,0.149c0.048-0.048,0.096-0.096,0.145-0.139c0.009-0.135,0.009-0.285,0.009-0.425
	c-0.78-0.235-1.56-0.472-2.349-0.698c-0.058,0.086-0.106,0.178-0.155,0.274C474.392,25.439,474.729,25.724,475.076,25.998
	 M476.751,24.058c0,0.135,0,0.275-0.02,0.414c0.347,0,0.693,0.009,1.04,0.009c0-0.048,0.01-0.1,0.01-0.139
	C477.435,24.246,477.098,24.154,476.751,24.058 M468.249,26.533c-0.51,0.187-0.991,0.375-1.502,0.553
	c-0.106,0.184-0.202,0.371-0.298,0.559c0.134,0.226,0.27,0.467,0.423,0.693c1.088,0.208,1.675-0.414,2.677-0.693
	c0.154-0.188,0.308-0.361,0.461-0.548C469.481,26.768,469.164,26.571,468.249,26.533 M470.05,31c0-0.053,0.02-0.101,0.02-0.14
	c-0.405-0.048-0.79-0.101-1.195-0.149c0.097,0.092,0.193,0.188,0.289,0.279C469.462,30.99,469.761,31,470.05,31 M250.706,148.895
	C296.654,60.33,387.743,0,492.629,0c104.887,0,195.967,60.33,241.924,148.895c-1.464-2.408-2.975-4.794-4.525-7.159
	c-0.434,0.02-1.251,0.038-1.501-0.14c0.085,3.038,1.356,4.28,1.771,6.745c-0.048,0-0.117,0-0.165-0.01
	c-0.702-0.274-6.739-4.805-7.058-5.325c-0.413-0.678-0.269-1.458-0.202-2.2c0.049,0,0.105,0.009,0.154,0.009
	c0.231,0.178,0.442,0.356,0.665,0.535c0.085-0.602,0.048-0.505,0.299-0.818c1,0.78,1.01,0.943,2.609,0.967
	c0.452-0.809,1.396-0.958,1.896-1.232c-0.202-0.625-0.404-1.146-0.597-1.68c-2.185-3.25-4.448-6.465-6.798-9.619
	c-0.356-0.318-0.693-0.631-1.098-0.987c-0.385-0.631-0.78-1.262-1.175-1.897c-0.606-0.39-1.29-0.01-1.453-0.097
	c-0.231-0.14-6.577-5.879-6.577-5.879c-2.281-2.994-4.997-8.959-9.427-9.59c0.01,0.105,0.01,0.217,0.01,0.322
	c-0.136,0.761-0.269,1.513-0.413,2.258c-1.938,0.327-1.628,2.277-2.648,3.312c-2.233-0.794-3.833-1.819-6.365-2.599
	c-0.289,0.698-1.078,1.044-1.253,1.607c-0.615,1.95,2.245,4.482,2.582,6.259c-0.597,0.698-1.348,2.249-2.042,2.792
	c-1.203,0.915-2.002,0.51-2.879,1.781c1.455,2.653-2.889,6.982,2.128,10.217c-0.25,1.243-0.991,1.3-1.271,2.268
	c-0.479,1.666,0.223,3.105,0.213,4.073c-1.021,0.02-1.253,0.067-1.78,0.347c-0.406,0.982-0.762,3.023-1.263,4.14
	c-0.521-0.356-0.558-0.472-1.474-0.535c-0.105,0.236-0.211,0.487-0.316,0.732c-1.841-0.554-3.323-0.198-5.547-0.11
	c-0.212,0.61-2.504,2.937-3.071,3.572c-3.062-0.477-4.622-7.121-7.395-5.792c-0.974,0.241-1.263,0.968-1.802,1.175
	c-0.838,0.336-2.782-0.511-4.265,0.057c0.039-3.428-0.665-5.686-1.552-7.867c-0.326,0.208-0.654,0.405-0.971,0.611
	c-0.656-0.76-1.061-1.222-1.841-1.844c0.464-2.315,0.753-9.267-0.172-11.602c-1.04-2.595-2.715-4.526-3.131-7.347
	c-0.49,0.322-0.395,0.313-0.816,0.413c-0.29-1.26-1.253-1.117-1.387-2.792c0.211-0.125,0.432-0.264,0.645-0.395
	c0.317-0.63,1.3-0.755,2.128-1.025c-0.434-0.765,0.028-1.791,0.953-1.594c1.117-0.289,1.396,0.294,2.157,0.529
	c1.491,0.477,3.947-0.698,4.92-0.591c3.755,0.336,10.457,2.031,13.26,0.91c-0.136-5.061-2.369-8.907-4.391-11.526
	c0.048-0.053,0.096-0.111,0.153-0.159c0.278,0.217,0.549,0.434,0.828,0.65c-0.077-0.405-7.964-7.376-8.078-7.376
	c-2.485-0.808-4.989-0.355-6.799-1.891c0.327-0.068,0.646-0.14,0.972-0.208c-0.884-0.688-1.887-0.496-2.194-1.843
	c0.105-0.01,0.211-0.01,0.328-0.02c0.865-1.017,2.686-0.8,3.734-1.411c0.665,0.462,1.35,0.925,2.022,1.401
	c0.896-0.741,1.627-0.544,2.938-0.375c0-0.048-0.01-0.11-0.01-0.159c-0.174-0.159-0.337-0.313-0.512-0.473
	c-0.558-1.675-1.829-2.465-2.752-3.788c0.048-0.048,0.097-0.105,0.154-0.154c1.501,0.472,3.773,2.176,5.786,1.694
	c0.163-0.158,0.318-0.317,0.473-0.481c-0.829-0.506-0.443-0.997-0.06-1.579c0.886-0.208,1.243-0.443,1.771-0.938
	c-0.479-1.006-0.952-1.998-1.423-2.995c0.692-0.987,2.339-1.165,3.186-2.002c0.223-0.217,0.347-0.525,0.395-0.857
	c-20.22-16.249-42.935-29.815-67.516-40.132c-1.426-0.5-2.688-0.963-3.621-1.208c-0.067-0.13-0.136-0.261-0.202-0.386
	c-11.217-4.516-22.82-8.362-34.741-11.478c-0.923,0.078-1.868,0.048-2.937-0.188c-0.048-0.101-0.096-0.197-0.145-0.298
	c0.049-0.077,0.097-0.154,0.145-0.226c-0.105-0.03-0.213-0.058-0.318-0.087c-0.039,0.149-0.076,0.293-0.124,0.443
	c-1.733-0.029-2.417-0.077-3.544-0.698c-0.048,0.038-0.096,0.086-0.153,0.134c0.202,0.25,0.395,0.496,0.587,0.741
	c-0.096,0.048-0.202,0.097-0.298,0.14c-0.897,0.145-1.705,0-2.514-0.231v0.139c0.097,0,0.191,0.01,0.299,0.01
	c0.442,0.404,0.886,0.809,1.329,1.204c-0.154,0.148-0.31,0.284-0.454,0.423c-0.586-0.179-0.48-0.293-0.887-0.028
	c0.666,0.346,0.54,0.543,0.724,1.333c-1.357,0.322-1.887,1.242-3.554,1.458c-0.163,1.054,0.019,1.141,0.425,1.901
	c-0.877,0.934-1.166,2.248-2.389,2.946c0.213,0.462,0.261,0.497,0.135,1.026c-0.145,0.039-0.289,0.092-0.442,0.131
	c-2.022-0.563-4.054-1.118-6.085-1.666c0.048-0.573,0.26-0.357-0.135-0.732c-1.956-1.165-5.527-1.063-7.858-2.137
	c0.096-0.415,0.405-0.227,0.011-0.434c-1.012-0.91-2.398-1.324-3.553-2.123c-0.53-0.361-0.349-1.006-0.569-1.31
	c-0.75-1.006-4.005-2.634-4.863-3.708c-0.355-0.452,0.088-0.919-0.566-1.588c-0.521,0.082-0.521,0.187-0.887-0.168
	c-0.096-0.621-0.192-1.243-0.279-1.864c-1.531-0.573-2.242-1.179-3.457-2.287c-2.242-0.245-4.505-0.461-6.777-0.649
	c0.778,0.217,1.607,0.688,1.963,1.054c-0.558,0.121-0.308-0.01-0.597,0.264c1.569,0.072,1.994,0.969,2.504,1.195
	c0.481,0.01,0.982,0.02,1.474,0.028c-0.328,0.208-0.646,0.009-0.443,0.415c1.492-0.116,3.148,0.385,3.534,1.656
	c-1.099,0.217-1.639,0.27-2.967-0.066c0.192,0.283,0.385,0.572,0.587,0.866c-0.163,0.043-0.308,0.091-0.452,0.13
	c-0.558-0.149-0.114-0.274-0.597-0.01c0.154,0.188,0.299,0.385,0.443,0.583c-0.347-0.009-0.693-0.02-1.04-0.029
	c0-0.188,0.009-0.386,0.009-0.573c-0.741,0.404-1.464,0.125-2.224-0.188c-0.365,0.265-0.241,0.087-0.442,0.563
	c0.135,0.086,0.279,0.197,0.424,0.293c-0.714,0.068-0.645,0.386-1.639,0.534c-1.317-1.025-5.132-1.56-4.544-3.499
	c-1.694-0.072-3.36-1.657-5.295-1.796c0.184,0.187,0.386,0.385,0.578,0.573c-0.06,0.087-0.097,0.187-0.155,0.284
	c-0.404-0.009-0.79-0.019-1.194-0.019c1.013,0.274,1.492,1.43,1.455,2.287c1.857-0.265,4.487,1.833,5.295,2.503
	c0,0.053,0,0.101,0,0.149c-0.298,0.039-0.587,0.077-0.886,0.121c0.039,0.096,0.087,0.197,0.136,0.284
	c1.175,0.346,1.935,0.925,2.802,1.488c0,0.091,0,0.187-0.009,0.289c-0.347-0.01-0.695-0.024-1.031-0.035
	c0.097,0.198,0.193,0.386,0.29,0.583c-0.049,0-0.108,0-0.145-0.009c-0.491-0.294-0.512-0.304-0.742-0.867
	c-0.395,0.515-0.155,0.592-1.039,0.688c-0.193-0.433-0.097-0.322-0.445-0.577c-0.048,0.096-0.105,0.182-0.153,0.283
	c0.357,0.535,0.491,0.621,0.434,1.142c-0.049,0-0.097,0-0.145,0c-0.404-0.155-0.79-0.304-1.185-0.453
	c0.588,0.949,1.108,0.866,2.052,1.469v0.139c-0.097,0-0.192,0-0.299,0c-0.24,0.039-0.491,0.078-0.741,0.121
	c-2.667-1.549-5.739-3.433-8.387-4.992c0,0.188,0,0.375-0.011,0.563c-0.923-0.482-1.866-0.978-2.791-1.459
	c0.048,0.188,0.087,0.386,0.136,0.574c2.348,0.957,5.776,3.048,7.202,4.949c-0.012,0.048-0.012,0.097-0.012,0.139
	c-0.682,0.087-0.365-0.26-0.605,0.414c-4.912-0.77-8.82-3.808-13.115-5.18c0,0.043,0,0.092,0,0.14c0.5,0.264,0.385,0.13,0.578,0.711
	c-0.193,0-0.395,0-0.598-0.014c-0.828-0.361-1.174-0.728-1.752-1.291c0.193-0.086,0.395-0.178,0.597-0.264
	c-1.29-0.188-1.867-0.688-2.339-1.589c0.683,0.188,0.943,0.385,1.473,0.019c-2.253-0.351-2.792-1.646-4.833-2.57
	c-2.022-0.92-4.487-1.175-6.336-1.449c-1.838-0.279-4.612,0.351-5.565-1.252c-2.349,0.125-4.68,0.265-7.009,0.443
	c0.048,0.067,0.096,0.125,0.154,0.197c-0.924,0.039-1.791,0.039-2.638,0c-14.597,1.223-28.867,3.491-42.733,6.754
	c-0.606,1.026-1.165,2.128-1.964,2.947c0.105,0,0.211-0.01,0.308-0.01c1.521-0.02,3.043-0.038,4.564-0.058
	c1.368,0.621,2.735,1.252,4.083,1.882c0.934,0.68,1.079,2.022,1.704,2.625c1.772,1.685,10.601,4.396,13.654,4.65
	c-0.665,1.146-1.588,1.488-2.437,2.379c0.039,0.375,0.077,0.746,0.116,1.123c-0.549,0.88-1.233,1.429-1.983,2.113
	c0.992,2.195,2.503,3.558,2.985,5.893c0.481,0.236,0.972,0.472,1.463,0.712c0.829-0.496,1.473-0.977,2.706-1.126
	c0.241,0.65,0.51,0.593,0.568,1.126c0.202-0.053,0.404-0.091,0.597-0.139c0.009-0.424,0.02-0.848,0.029-1.271
	c1.011,0.009,2.042-0.79,2.86-1.401c-1.117-1.713,0.482-3.538,1.3-5.06c-0.895-0.313-0.703-1.142-0.847-1.825h0.298
	c1.54-0.048,3.071-0.087,4.602-0.125c4.314-0.732,7.868-1.29,9.465-4.723c-0.125-2.334-1.723-3.746-3.61-4.356
	c0.154-0.289,0.318-0.563,0.481-0.838c1.368-0.034,4.93-1.42,5.373-1.936c-0.635-0.857,0.203-1.006-0.972-2.374
	c1.281-0.226,2.061-0.563,2.706-1.382c-0.501-0.196-0.463-0.196-0.732-0.563c0.058-0.188,0.106-0.375,0.164-0.563
	c0.298-0.274,0.606-0.549,0.915-0.829c3.158-0.116,6.018,1.098,9.128,2.153c1.232-0.03,2.465-0.072,3.717-0.102
	c1.444,0.497,3.823,2.258,4.978,3.284c-0.009,0.053-0.009,0.101-0.009,0.149c-0.539,0.077-0.443,0.048-0.751,0.264
	c0,0.054,0,0.102,0,0.14c0.048,0.101,0.097,0.198,0.154,0.285c1.714,0.485,3.9,0.967,4.853,2.051
	c0.443-0.183,0.905-0.361,1.349-0.54c0.145,0.236,0.289,0.472,0.423,0.708c-0.54,0.226-1.088,0.452-1.637,0.683
	c0.097,1.574-0.346,1.753-0.809,2.956c0.346,0.048,0.702,0.106,1.05,0.159c0.038,0.424,0.077,0.856,0.124,1.281
	c1.561,0.255,2.119,1.536,2.947,1.468c4.949,3.996,9.64-1.844,13.29-2.84c-0.078,1.42,3.34,5.758,4.216,7.11
	c0.25,0.01,0.501,0.019,0.741,0.019c-0.163,1.589,1.311,2.119,2.648,2.663c-0.019,0.916-0.424,1.675-0.308,1.714
	c0.347,0.159,0.693,0.308,1.031,0.467c-0.108,1.103-0.049,1.95-0.184,2.296c-0.501,0.02-0.308-0.12-0.742,0.265
	c1.107,0.217,3.737,2.128,3.861,2.426c-0.54,0.443-0.347,0.096-0.163,0.717c1.01,0.395,1.106,0.929,1.771,1.502
	c0.588,0.511,2.224,0.371,2.83,0.829c0.029,0.472-0.115,0.52,0.434,0.875c0.982,0.65,2.079,0.405,3.284,0.708
	c0.182,0.997,1.839,1.127,2.514,2.123c-1.292-0.149-2.582-0.298-3.872-0.433c0,0.048,0,0.096,0,0.134
	c1.85,0.226,3.418,0.857,3.716,2.614c1.021-0.067,1.147,0.309,2.679,0.395c-0.136,0.491-0.127,0.188-0.154,0.583
	c0.847,0.322,1.685,0.649,2.531,0.978c-0.509,0.818-0.048,3.182-0.472,3.899c-0.097-0.048-0.193-0.096-0.299-0.154
	c0.271,0.659,0.337,0.226,0.145,0.736c-2.483,2.715-9.706-1.006-13.307,0.477c-1.541,0.621-3.09,1.132-4.795,1.406
	c-2.206,0.355-8.628-2.268-10.728-2.985c-3.466-1.186-6.69-1.508-10.138-2.476c-2.609-0.741-5.594-1.126-7.617-0.057
	c-0.462,0.462-0.915,0.934-1.367,1.396c-0.308,0.092-5.228-0.264-5.228-0.264c-2.437,0.75-10.284,3.697-11.574,4.93
	c3.014,0.019,4.545-2.061,6.769-2.456c5.527-0.987,18.305-2.72,21.945,2.162v0.145c-0.202-0.048-0.404-0.105-0.606-0.164
	c0.192,0.529,0.627,0.568,0.145,0.876c0,0.149,0,0.284,0,0.433c-1.551,0.188-3.092,0.385-4.651,0.583
	c-1.734-0.217-2.446-1.107-4.468-1.281c0.038,0.086,0.097,0.197,0.145,0.284c1.165,0.207,1.935,0.582,2.224,1.656
	c2.233,0.038,3.553,0.298,5.093-0.14c0,0.053,0,0.101,0,0.149c-0.105,0.188-0.201,0.375-0.308,0.563
	c-1.474,0.539-2.186,1.381-3.765,1.627c0,0.097,0,0.188,0,0.285c0.8,0.028,1.232,0.13,1.646,0.481
	c-0.26,0.188-0.511,0.375-0.761,0.553c0.395,0.669,0.847,2.081,1.32,2.359c0.895,0.371,1.801,0.737,2.687,1.103
	c-0.058,0.097-0.096,0.187-0.153,0.284c-0.193-0.009-0.386-0.009-0.597-0.019c0.19,0.245,0.395,0.505,0.597,0.75
	c2.869,0.337,4.197,2.07,7.624,1.714c0.069,1.194,0.579,1.222,1.639,1.078c0.115-2.065,3.484-2.859,4.967-3.591
	c0.299,0.058,0.597,0.121,0.896,0.178c-0.01,0.649-0.076,0.375,0.289,0.886c-0.395,0.461-0.799,0.938-1.203,1.41v0.14
	c1.021,0.096,2.369,0.828,2.233,1.695c0,0.148,0,0.284,0,0.433c-2.483-0.019-4.467,0.395-6.298-0.245
	c-0.269,0.404-0.355,0.313-0.75,0.563c0.943,0.029,1.367,0.164,1.792,0.65c-0.097-0.009-0.204-0.009-0.299-0.02
	c-2.331,0.67-10.266-0.996-11.535,0.313c-0.848-0.274-1.301-0.265-1.493-1.213c-0.212,0.188-0.405,0.375-0.598,0.563
	c-0.115-0.149-0.211-0.294-0.298-0.443c-0.75,0.274-0.461,0.385-0.761,0.987c-2.292,0.145-4.246,1.516-6.306,1.401
	c-1.118-0.024-0.751-0.525-1.339-1.344c-0.298-0.009-0.597-0.019-0.886-0.029c0-1.531,0.203-1.579,0.905-2.437
	c0.212-0.086,0.404-0.187,0.607-0.274c-0.348,0.087-0.704,0.178-1.05,0.265c0.058-0.097,0.106-0.198,0.154-0.285
	c2.851-0.457,5.701-0.9,8.551-1.343c-0.79-0.168-1.588-0.347-2.388-0.511c0.048-0.092,0.096-0.188,0.154-0.288
	c0.694-0.168,1.387-0.343,2.1-0.511c-0.096-0.101-0.202-0.197-0.309-0.299c-1.887,0.603-6.278,1.098-8.531,0.612
	c-0.5-0.106-2.022-0.669-2.388-0.64c0.154,0.298,0.298,0.582,0.434,0.876c-3.033,0.837-5.778,0.573-8.686,0.8
	c0-0.559,0.059-0.405-0.279-0.877c-2.311,1.281-3.794,1.343-6.143,0.877c-0.963,0.899-3.062,1.56-4.083,2.812
	c0.193,0.292,0.386,0.591,0.587,0.875c-0.703,0.178-1.396,0.366-2.108,0.544c0,0.097,0,0.197,0,0.284
	c1.579,0.227,1.232,1.449,1.463,2.35c0.404,0.058,0.799,0.105,1.204,0.163c0.856,0,0.529-0.058,0.915-0.847
	c0.145,0.241,0.288,0.487,0.423,0.732c-0.192,0.284-0.404,0.573-0.597,0.857c-1.752-0.048-2.571-0.01-2.985-0.925
	c-3.515,1.329-11.574-1.579-14.203,0.511c2.186-0.53,4.188,0.375,6.423,0.091c0.25,0.284,0.491,0.578,0.732,0.867
	c-2.927,0.313-6.73-0.476-9.417-0.111c0.058,0.101,0.106,0.188,0.154,0.289c0.453,0.284,0.231,0.029,0.443,0.588
	c-1.059,1.598-4.179,4.607-6.471,4.279v-0.134c0.203-0.25,0.405-0.487,0.607-0.722c-1.107-0.284-1.377-0.828-2.07-1.458
	c0.309,1.362-0.096,1.92,0.857,2.898c-1.55,2.494-5.055,3.668-5.884,5.483c-0.539-0.1-0.443-0.058-0.741-0.288
	c0.058-0.096,0.105-0.197,0.154-0.294c0.53-1.093,1.416-1.42,2.263-2.171c-0.443-0.145-0.886-0.294-1.329-0.443
	c0.559-2.798-0.289-2.807,1.396-5.205c-0.703,0.63-1.396,1.252-2.109,1.873c-0.077,0.731-0.461,3.125-0.038,3.48
	c-0.482,0.66-1.57,2.138-1.532,2.749c0.048,0.645-0.288,0.376,0.145,0.732c0.298,0.097,0.598,0.188,0.886,0.285
	c-0.077,1.56-0.384,4.606-0.5,4.655c0.009-0.385,0.009-0.779,0.02-1.165c-0.944-0.144-1.888-0.293-2.831-0.443
	c0,0.048,0,0.101,0,0.149c1.136,0.067,2.176,0.443,2.677,1.166c-0.26,0.395-0.52,0.775-0.761,1.169
	c-0.886-0.02-3.149,0.395-3.881,0.871c0,0.048,0,0.097,0,0.145c0.27,0.704,0.125,0.497,0.732,0.868
	c-0.058,0.1-0.105,0.196-0.154,0.298c-2.734,0.669-7.415,0.158-8.801,2.801c-5.537-1.126-4.42,1.487-7.453,2.393
	c-6.432,1.927-12.854,3.876-13.576,11.94c0.317,2.094,0.654,4.193,0.981,6.292c-0.299,0.105-0.597,0.208-0.886,0.318
	c0,2.825,0.973,5.96-0.038,8.252c-0.809,1.791-3.149,3.716-3.129,5.542c-0.664-0.083-3.303,0.707-4.131-0.486
	c1.098-2.417-1.242-2.403-1.31-4.695c0.222-0.785,0.039-1.092-0.289-1.612c-0.395,0.164-0.25,0.246-0.597,0.164
	c0.423-0.728,0.482-1.055,1.04-1.791c-0.038-0.101-0.086-0.198-0.134-0.298c-0.096,0.197-0.202,0.404-0.309,0.601
	c-0.231-0.086-0.481-0.187-0.731-0.274c-0.116-1.343-0.54-2.792-0.27-3.375c0.54-0.415,1.079-0.818,1.617-1.233
	c-0.79-0.087-0.423,0.082-0.731-0.708c-0.097,0.048-0.193,0.097-0.289,0.16c0.192,0.669,0.289,0.649-0.308,1.18
	c-0.096-0.048-0.192-0.087-0.289-0.135c-0.385-2.152,3.053-3.572,1.81-6.369c-0.847-0.169-2.253-3.697-2.908-4.607
	c-1.531,0.029-4.68,1.825-5.748,0.938c-0.279-0.265-0.259-1.381-0.857-2.013c-2.484-2.58-4.891-1.3-8.204-1.695
	c0.01-0.63,0.01-1.26,0.02-1.891c-0.154,0.096-0.298,0.207-0.443,0.303c-0.154,0.356-0.298,0.704-0.462,1.045
	c-2.33-0.424-5.025-0.8-7.299,0.674c0.097,0.134,0.193,0.284,0.289,0.423c0.039,0,0.097-0.009,0.145-0.009
	c0.395-0.221,0.78-0.438,1.165-0.655c0.029,0.809,0.106,0.8-0.154,1.333c-0.829,0.14-1.194,0.285-1.599,0.819
	c0.077,0.086,0.184,0.178,0.28,0.274c0.49,0.452,0.972,0.919,1.435,1.381c-0.183,0.255-0.385,0.51-0.578,0.762
	c-0.048,0.009-0.096,0.009-0.145,0.009c-0.145-0.091-0.288-0.178-0.433-0.27c-0.829-0.405-1.291-1.3-1.888-1.94
	c-0.636,0.583-0.732,1.156-1.762,1.421c-0.087-0.337-0.184-0.669-0.28-1.007c-0.674,0.284-1.357,0.563-2.041,0.847
	c-0.491-0.356-0.963-0.722-1.445-1.073c0.096-0.159,0.193-0.309,0.289-0.467c0.097-0.048,0.193-0.105,0.288-0.154
	c-0.472-0.593-1.309-1.449-1.443-1.956c-0.386,0.121-0.761,0.246-1.156,0.366c0.048,0.14,0.096,0.285,0.145,0.423
	c0.337,0.03,0.674,0.059,1.011,0.087c0,0.187,0,0.385,0,0.582c-0.154,0.01-0.29,0.019-0.443,0.034
	c-1.02-0.535-3.986-1.69-5.353-1.834c-1.396-0.15-3.736,1.121-4.343,0.611c-0.203-0.082-0.385-0.168-0.587-0.25
	c0.202-0.207,0.404-0.414,0.587-0.621c-0.039-0.048-0.087-0.097-0.145-0.134c-0.501,0.245-0.848,0.395-1.155,0.818
	c0.096,0.707,0.587,1.713-0.742,1.367c-2.225,1.295-4.092,2.268-6.644,2.013c0.135,0.226,0.279,0.452,0.423,0.688
	c-0.183,0.259-0.384,0.524-0.587,0.779c-0.404-0.067-0.134,0.039-0.847,0.376c0.193-0.51,0.173-0.304,0.135-0.896
	c-0.135,0.255-0.289,0.511-0.443,0.766c-0.174,0.8-1.801,1.521-2.734,1.42c0.077,2.07-1.686,2.566-2.311,4.174
	c-0.713,1.772-0.097,3.086-0.462,4.444c-0.568,2.113-2.388,1.814-3.312,2.97c-1.002,2.445-2.022,4.91-3.024,7.366
	c-1.29,2.796-3.485,6.07-2.022,9.195c-0.337,0.535-0.674,1.068-1.002,1.589c-0.038,0.167-0.057,0.471-0.038,0.865
	c-8.445,0.261-16.899,0.516-25.343,0.81c0.077-0.068,0.144-0.145,0.231-0.256c-0.366-0.915-0.327-0.722,0.289-1.666
	c2.696-1.911,0.886-14.938-0.539-16.85c0.173-0.886,0.125-1.243,0.712-1.863c-0.79-1.314-1.579-1.776-1.82-3.558
	c0.954-1.362,1.713-1.954,1.695-3.928c-0.241,0.029-0.472,0.072-0.704,0.101c0.135-0.603,0.29-1.213,0.424-1.825
	c-0.51-0.078-0.404-0.058-0.693-0.337c-0.019-1.545,0.366-2.061,0.857-3.067c-0.106-0.076-0.183-0.164-0.289-0.245
	c-0.443,0.072-0.202,0.288-0.424-0.087c-0.847-0.838-0.423-3.621-0.404-4.496c-0.28,0.284-0.568,0.573-0.848,0.856
	c-0.144-0.129-0.279-0.255-0.414-0.384c0.521-0.857,0.867-1.232,1.686-1.854c-0.395-3.408,2.783-7.226,2.012-9.821
	c-0.192,0.13-0.375,0.25-0.558,0.375c-0.193-0.313-0.386-0.63-0.559-0.953c-3.62,2.758-4.121,12.233-5.112,16.6
	c-0.423,1.863,0.423,4.607,0.115,6.162c-0.452,2.388-2.744,8.118-2.378,10.375c0.039,0,0.077-0.009,0.136-0.02
	c0.22-0.288,0.461-0.562,0.693-0.847c0.097,0.333,0.192,0.66,0.279,0.982c-0.279,3.542,0.415,3.196-2.243,5.945
	c-0.077-0.029-0.184-0.058-0.27-0.096v-0.149c0.549-4.443-1.001-6.062-1.666-9.013c2.302-2.167,2.879-5.59,1.686-8.656
	c-0.424,0.246-0.25,0.226-0.693,0.255c0.115-1.742-0.607-2.946-0.415-4.939c0.048-0.009,0.086-0.02,0.145-0.029
	c0.731,0.226,1.001,0.029,1.676,0.038c0.558-0.972,1.117-1.94,1.685-2.908c0.5-1.713-0.009-3.509-0.27-4.81
	c-0.202-1.025,0.626-2.999,0.847-3.808c1.098-3.904,3.621-8.223,4.41-11.781c0.54-2.465-0.665-2.494-0.404-4.496
	c-0.424-0.039-0.847-0.078-1.261-0.116c0.02-0.23,1.281-3.592,2.176-5.859C280.671,107,264.051,126.947,250.706,148.895
	 M457.706,87.762c0.25-0.087,0.5-0.188,0.75-0.274c-0.154,0-0.288-0.01-0.442-0.01c-0.116,0.048-0.193,0.096-0.309,0.145
	C457.706,87.675,457.706,87.714,457.706,87.762 M513.476,81.157c0.434-0.072,0.731,0.135,0.454-0.28
	c-0.097-0.009-0.204-0.009-0.301-0.009C513.581,80.959,513.523,81.056,513.476,81.157 M511.82,81.816
	c0.597,0.019,1.203,0.048,1.809,0.067c0-0.048,0-0.097,0-0.145c-0.058-0.148-0.105-0.298-0.153-0.447
	c-0.251-0.01-0.501-0.021-0.751-0.03C512.436,81.45,512.128,81.628,511.82,81.816 M497.906,79.727
	c-0.048,0.198-0.097,0.385-0.145,0.583c0.145,0.097,0.289,0.197,0.443,0.303c0.896-0.116,1.791-0.236,2.696-0.357
	C499.908,80.083,498.897,79.905,497.906,79.727 M533.369,59.979c0.163-0.092,0.308-0.178,0.462-0.27c0-0.048,0-0.096,0-0.145
	c-0.202-0.063-0.396-0.11-0.597-0.168C533.234,59.838,533.09,59.593,533.369,59.979 M522.055,57.532
	c2.061-0.091,3.996-0.365,5.827-0.515c-1.446-0.196-2.89-0.404-4.334-0.591c-0.346,0.082-0.684,0.168-1.039,0.25
	C522.373,57.628,522.353,56.968,522.055,57.532 M463.396,86.549c0.222-0.304,0.279-0.067,0.164-0.434
	C463.502,86.265,463.454,86.409,463.396,86.549 M300.505,103.596c-0.096,0.159-0.193,0.318-0.279,0.472
	C300.669,103.755,300.429,103.89,300.505,103.596 M302.652,98.618c-0.529,1.656-1.155,2.769-1.434,4.3
	c0.039-0.01,0.096-0.02,0.135-0.02C302.027,101.743,303.664,100.472,302.652,98.618 M325.501,152.602c0,0.395,0,0.786,0,1.181
	c0.193-0.021,0.386-0.039,0.569-0.058v-0.149C325.907,153.093,325.887,152.857,325.501,152.602 M353.849,117.333
	c-0.086,0.196-0.183,0.404-0.279,0.601C353.868,117.606,353.984,117.708,353.849,117.333 M368.986,118.131
	c-0.443-0.366-0.876-0.732-1.309-1.097c-0.521,0.447-0.905,0.505-1.186,1.232c0.993,0.119,1.599-0.039,2.495,0.009
	C368.986,118.228,368.986,118.179,368.986,118.131 M557.558,25.969c-0.262-0.304,0-0.096-0.443-0.304
	C557.383,25.969,557.114,25.772,557.558,25.969 M490.829,17.086c-0.154-0.158-0.309-0.308-0.462-0.452
	c-1.772,0.02-3.524,0.048-5.276,0.087c0.27,0.066,0.559,0.129,0.857,0.178c1.492,0.255,3.235-0.149,4.873,0.327
	C490.819,17.173,490.819,17.125,490.829,17.086 M498.609,20.673c-0.096-0.134-0.193-0.285-0.298-0.423
	c-0.376-0.857-1.493-1.32-2.484-1.575c0.038,0.323,0.086,0.66,0.125,0.982c-0.443-0.01-0.886-0.01-1.329-0.01
	c0.048,0.092,0.096,0.188,0.134,0.28C496.24,20.125,497.463,20.292,498.609,20.673 M503.115,17.5
	c-0.154-0.101-0.299-0.188-0.443-0.289C502.942,17.5,502.672,17.313,503.115,17.5 M501.652,16.739
	c-1.117-0.028-2.254-0.028-3.381-0.048c0.029,0.227-0.019,0.395-0.202,0.751c1.935-0.13,2.523,0.038,4.294,0.333
	c-0.192-0.15-0.386-0.284-0.578-0.434c0.549-0.347,0.386,0.039,0.299-0.563C501.922,16.778,501.786,16.759,501.652,16.739
	 M492.629,542.4c-105.059,0-196.514-54.836-244.002-135.814c45.235,90.577,137.518,152.424,244.002,152.424
	c106.476,0,198.758-61.847,244.004-152.424C689.144,487.564,597.679,542.4,492.629,542.4 M545.887,403.504
	c-0.068,0.521-0.174,1.06-0.376,1.627c-0.636,0.741-1.271,1.494-1.917,2.227c-1.28,1.578-1.819,3.312-2.502,5.535
	c-4.083,1.492-2.726,2.918-4.709,6.094c-0.539,0.858-1.387,0.771-2.224,1.341c-1.946,1.308-1.781,2.185-4.574,3.553
	c-1.703,0.847-1.8,3.601-2.937,4.486c-1.743,0.809-4.573-0.096-4.438,2.225c-0.502,0.202-0.454,0.202-0.723,0.587
	c-2.619-1.232-7.896-2.368-10.688-2.35c0,0.163,0,0.308,0,0.463c0.482,0.462,0.443,0.288,0.019,0.751
	c-1.348-0.443-2.667,1.579-3.996,1.907c0,0.037,0,0.095,0,0.134c0.193,0.057,0.396,0.105,0.588,0.163
	c-0.097,0.348-0.192,0.704-0.289,1.051c-0.597-0.462-1.193-0.906-1.781-1.377c-2.667-0.799-13.085,4.478-13.721,6.094
	c-0.799,2.023-0.905,3.949-1.29,5.423c0.192,0.066,0.385,0.105,0.586,0.163c-1.049,3.813-4.467,4.197-7.211,6.286
	c-2.167,1.666-3.39,4.469-5.72,5.999c-1.955,0.848-3.919,1.694-5.874,2.543c-0.79,1.001-1.56,2.002-2.349,3.005
	c-1.031,0.452-2.06,0.895-3.091,1.347c-1.781,1.271-2.282,2.638-5.296,3.005c-1.184,0.135-1.646-0.741-2.359-1.061
	c-0.982-0.432-1.636,0.175-2.522-0.009c-1.117-0.221-2.128-1.955-2.966-2.562c-0.933-0.202-1.867-0.404-2.812-0.606
	c-0.23-0.867-0.654-1.021-1.04-1.656c-0.154,0.059-0.298,0.096-0.443,0.153c-0.202,0.25-0.404,0.503-0.587,0.753
	c1.175,2.079,3.861,2.32,4.468,4.969c-0.395,0.345-0.78,0.693-1.175,1.049c0.106,1.579,0.704,1.685,1.945,2.109
	c0,0.693,0.009,1.404,0.009,2.098c-0.847,0.684-3.081,3.408-3.659,3.755c-2.619,1.482-12.055,0.117-14.173-0.769
	c0.105,0.308,0.211,0.605,0.308,0.904h-0.145c-0.202-0.097-0.395-0.193-0.586-0.299c0.568,1.416-0.462,2.553-1.156,3.602
	c0.193,0.202,0.386,0.395,0.587,0.587c0.202-0.096,0.395-0.192,0.587-0.289c-0.241,0.549-0.481,1.098-0.712,1.637
	c-1.185,0.058-2.37,0.105-3.543,0.154c-1.522-0.396-4.063-3.158-5.18-1.791c0.404,1.118,0.423,2.869,0.924,3.736
	c1.001,0.289,1.021,0.654,1.482,1.059c0.347,0.097,0.684,0.192,1.031,0.289v-0.153c-0.241-0.193-0.491-0.386-0.741-0.598
	c0.539-0.048,1.079-0.096,1.618-0.145c0.097,0.145,0.193,0.299,0.298,0.452c0.375,0.482,0.461,0.868,0.461,1.791
	c-0.144,0.155-0.298,0.3-0.443,0.444c-0.395-0.048-0.79-0.096-1.184-0.145c-0.472-0.789-0.731-1.127-1.483-1.647
	c-0.347,0.153-0.693,0.289-1.03,0.452c0.096,0.048,0.203,0.105,0.299,0.145c0.558,0.521,1.406,0.627,1.781,1.35
	c-1.493,0.037-2.032,0.452-2.648,1.347c0.279,0.829,0.567,1.637,0.462,2.532c-0.617,0.223-0.751,0.126-1.031,0.752
	c0.453,0.278,0.241,0.028,0.453,0.606h-0.587c-1.483-0.588-3.014-0.26-4.131,0.588c-0.779,3.571,2.754,4.092,5.2,5.671
	c0.097,0.943,0.116,1.887-0.125,2.224c-0.77,0.877-2.725,1.281-3.678,1.936c0.068,1.117,0.279,1.946-0.279,2.368
	c-0.684,0.154-1.368,0.308-2.061,0.443c-0.038,0.105-0.096,0.213-0.145,0.31c0.184,2.502,2.081,3.522,3.274,5.045
	c0,0.048,0,0.096,0,0.145c-0.741-0.299-1.473-0.588-2.224-0.886c-0.136,0.096-0.29,0.201-0.424,0.298
	c0.096,0.039,0.183,0.097,0.288,0.145c0.829,0.991,2.022,0.914,2.947,1.916c-0.135,0.202-0.28,0.404-0.424,0.598
	c3.207,0.904,4.507,4.399,8.569,4.881c0,0.146,0,0.299,0,0.443c-0.058,0.105-0.106,0.202-0.154,0.299h-0.154
	c-0.675-0.097-1.368-0.193-2.061-0.299c0,0.202,0,0.395,0,0.588c-0.308-0.271-0.625-0.406-0.953-0.501
	c-0.02-0.039-0.048-0.059-0.078-0.087c0,0.028,0,0.039,0,0.058c-0.76-0.202-1.569-0.124-2.647-0.501
	c0.347,0.347,0.684,0.685,1.031,1.031v0.153c-2.177-0.539-6.683-2.215-8.117-3.543c0.211-0.462,0.115-0.01,0.154-0.588
	c-1.329,0.279-6.085-2.878-7.25-4.005c0.202-0.404,0.105-0.039,0.145-0.443c-1.137-0.261-1.945-0.665-2.956-1.916
	c0.79,0.337,1.579,0.684,2.369,1.03v-0.145c-0.838-0.693-1.686-1.396-2.523-2.08c0.096,0.193,0.203,0.384,0.298,0.588
	c-0.904-0.53-1.675-1.147-2.224-2.07c0.048-0.096,0.106-0.213,0.145-0.298c0.5,0.145,0.992,0.298,1.483,0.442
	c0.096-0.202,0.192-0.395,0.289-0.607c-0.616-0.173-0.52-0.241-0.886-0.576c-0.588,0.192-1.175,0.395-1.772,0.576
	c-0.058-1.232-0.164-1.655-0.75-2.504c0.057-0.058,0.105-0.097,0.154-0.163h0.597c-0.164-0.338-0.308-0.685-0.462-1.03
	c-0.193,0.442-0.385,0.886-0.578,1.338c-0.25-0.105-0.5-0.202-0.741-0.308c-0.145-0.588-0.298-1.185-0.453-1.781
	c0-0.058,0-0.097,0-0.154c0.395,0.097,0.79,0.202,1.185,0.299c-0.693-0.337-1.376-0.684-2.07-1.03
	c-0.981-1.251-1.185-3.447-1.955-4.91c0.241-0.155,0.491-0.309,0.742-0.463c-0.154-0.136-0.299-0.289-0.462-0.443v-0.145
	c0.886,0.069,0.973,0.251,1.483,0.588c0.154-0.481,0.288-0.991,0.443-1.482c-0.309-0.308-0.241-0.115-0.462-0.597
	c0.193,0.057,0.395,0.096,0.597,0.153c-0.636-0.693-1.964-0.886-2.667-1.503c-0.202,0.213-0.385,0.406-0.578,0.599
	c-0.347-0.192-0.693-0.386-1.04-0.599c0-0.19,0-0.384-0.009-0.586c0.395-0.298,0.78-0.607,1.175-0.896
	c-0.155-0.299-0.289-0.606-0.443-0.904v-0.146h1.021c0.039-0.702,0.096-1.396,0.134-2.088c-0.395-0.404-0.79-0.799-1.185-1.194
	c0.126-1.021,0.395-2.013,0.857-2.696c0.982,0.365,1.521,0.867,2.08,1.637c-0.328,0.231,0.25,2.485,0.462,3.293h0.298
	c0.01-2.696-0.461-4.468-0.058-7.029c-0.25-0.202-0.491-0.404-0.741-0.597c0.925-0.365,0.559-2.041-0.173-2.562
	c0.145-0.192,0.289-0.386,0.443-0.576c-0.25-0.31-0.5-0.608-0.751-0.906c-0.096,0.192-0.192,0.395-0.288,0.597
	c0.577,0.058,0.23-0.076,0.308,0.597h-0.154c-0.347-0.154-0.684-0.287-1.04-0.443c-0.087,0.097-0.192,0.193-0.289,0.289
	c0.818,1.214,0.963,3.092,0.636,4.652c-0.154,0.048-0.298,0.097-0.443,0.145c-0.848-0.289-1.406-0.425-1.926-1.042
	c0.404-1.675-0.385-3.225,0.116-4.641c0.24,0.145,0.481,0.289,0.731,0.443c0-0.202-0.009-0.404-0.009-0.597
	c-2.34-3.563-0.491-4.496-0.366-7.664c-1.127-2.293-2.445-5.239-2.725-7.964c0.039-0.048,0.096-0.105,0.135-0.163
	c0.443,0.154,0.886,0.308,1.329,0.462c0-0.654-0.01-1.309-0.02-1.965c0.154,0.097,0.308,0.192,0.443,0.31
	c0.289-3.854,1.771-6.973,2.985-10.275c0.202-0.549-0.366-2.003-0.607-2.109c1.57-3.677-0.934-6.383-0.586-11.36
	c0.693-0.021,0.423,0.027,1.04-0.154c0.135-2.272-0.559-3.351-0.809-5.45c1.463-0.982,0.616-2.601,1.425-4.265
	c0.75-1.531,1.29-3.842,1.54-6.539c-0.106-0.51-0.211-1.021-0.308-1.521c0.125-0.77,0.962-0.991,1.155-1.521
	c-0.164-1.329-0.328-2.646-0.491-3.957c0.183-1.319,0.356-2.648,0.529-3.957c-0.241,0-0.491,0-0.732,0
	c0.039-0.714,0.078-1.425,0.126-2.147c0.79,0.126,0.433,0.222,1.029,0c0-0.299,0.059-0.588,0.077-0.877 M415.377,508.18
	c-0.184-0.105-0.385-0.202-0.578-0.299c-0.058,0.049-0.097,0.097-0.154,0.154c0.096,0.097,0.202,0.192,0.298,0.289
	C415.088,508.276,415.242,508.228,415.377,508.18 M417.746,509.21h-0.298c-0.145-0.048-0.298-0.097-0.443-0.145
	c-0.279,0.202-0.579,0.395-0.877,0.588C417.042,509.786,417.409,510.038,417.746,509.21 M420.279,513.793h-0.298
	c0.057,0.097,0.095,0.212,0.154,0.309C420.182,514.005,420.23,513.89,420.279,513.793 M419.816,510.847
	c-0.145-0.982,0.009-1.348-1.031-1.637c0.231,1.106,0.54,2.312,0.443,2.966c0.154,0.057,0.309,0.096,0.443,0.145
	c0.154-0.347,0.309-0.693,0.443-1.031c0.096,0.039,0.193,0.097,0.289,0.154c0.27,0.693,0.683,1.301,1.347,1.618
	c-0.25-0.347-0.5-0.693-0.75-1.04v-0.145c0.443-0.105,0.886-0.202,1.319-0.298v-0.136
	C421.145,511.309,420.625,511.347,419.816,510.847 M420.249,509.065c-0.154,0.048-0.288,0.097-0.443,0.145
	c0.096,0.058,0.193,0.097,0.289,0.154c0.154,0.145,0.309,0.289,0.452,0.442c0.193-0.096,0.395-0.192,0.587-0.298
	c-0.048-0.097-0.096-0.202-0.145-0.299C420.74,509.162,420.5,509.113,420.249,509.065 M435.637,474.469
	c0-0.058-0.02-0.115-0.02-0.153c-0.25-0.559-0.02-0.751-0.732-1.05C435.021,474.008,434.962,474.18,435.637,474.469
	 M479.014,453.941c-0.01-0.464-0.01-0.906-0.01-1.368c-0.693,0.097-1.387,0.202-2.07,0.299c-0.78,1.799-2.61,2.724-4.112,3.764
	c0,0.039,0,0.097,0.01,0.136c0.241,0.105,0.491,0.202,0.741,0.308c1.396-0.184,2.369-0.732,3.235-1.348c0-0.25,0-0.491,0-0.751
	C477.762,454.864,478.35,454.384,479.014,453.941 M489.885,444.494c-0.059-0.048-0.096-0.105-0.155-0.145
	c-0.048,0.145-0.095,0.289-0.144,0.443C489.682,444.696,489.789,444.591,489.885,444.494 M490.173,443.579h-0.144
	c-0.048,0.165-0.106,0.31-0.145,0.463C490.173,443.771,489.991,444.042,490.173,443.579 M517.77,428.895
	c-0.202,0-0.404,0-0.597-0.009c-0.048,0.213-0.097,0.405-0.154,0.599C517.27,429.291,517.52,429.099,517.77,428.895"/>
</svg>
